<!-- <svg width="100" height="46" viewBox="0 0 178 46" fill="none" xmlns="http://www.w3.org/2000/svg">
<path d="M49.8828 19.5352H47.1758C47.207 19.2617 47.2812 19.0039 47.3984 18.7617C47.5234 18.5195 47.6758 18.3086 47.8555 18.1289C48.043 17.9414 48.2539 17.7969 48.4883 17.6953C48.7227 17.5859 48.9688 17.5312 49.2266 17.5312H50.2344L51.793 8.44922C51.8477 8.12891 51.9492 7.83203 52.0977 7.55859C52.2539 7.28516 52.4336 7.05078 52.6367 6.85547C52.8477 6.66016 53.0781 6.50781 53.3281 6.39844C53.5781 6.28906 53.8281 6.23438 54.0781 6.23438H56.9258C57.168 6.23438 57.4141 6.28906 57.6641 6.39844C57.9141 6.50781 58.1445 6.66406 58.3555 6.86719C58.5664 7.0625 58.7461 7.29688 58.8945 7.57031C59.0508 7.83594 59.1562 8.13281 59.2109 8.46094L61.8828 24H59.082L58.3555 19.5352H52.6016L51.8867 24H49.1211L49.8828 19.5352ZM58.0391 17.5312L56.5391 8.21484H54.3945C54.1445 9.73047 53.8984 11.2695 53.6562 12.832C53.4141 14.3867 53.168 15.9531 52.918 17.5312H58.0391ZM65.4453 19.5352H62.7383C62.7695 19.2617 62.8438 19.0039 62.9609 18.7617C63.0859 18.5195 63.2383 18.3086 63.418 18.1289C63.6055 17.9414 63.8164 17.7969 64.0508 17.6953C64.2852 17.5859 64.5312 17.5312 64.7891 17.5312H65.7969L67.3555 8.44922C67.4102 8.12891 67.5117 7.83203 67.6602 7.55859C67.8164 7.28516 67.9961 7.05078 68.1992 6.85547C68.4102 6.66016 68.6406 6.50781 68.8906 6.39844C69.1406 6.28906 69.3906 6.23438 69.6406 6.23438H72.4883C72.7305 6.23438 72.9766 6.28906 73.2266 6.39844C73.4766 6.50781 73.707 6.66406 73.918 6.86719C74.1289 7.0625 74.3086 7.29688 74.457 7.57031C74.6133 7.83594 74.7188 8.13281 74.7734 8.46094L77.4453 24H74.6445L73.918 19.5352H68.1641L67.4492 24H64.6836L65.4453 19.5352ZM73.6016 17.5312L72.1016 8.21484H69.957C69.707 9.73047 69.4609 11.2695 69.2188 12.832C68.9766 14.3867 68.7305 15.9531 68.4805 17.5312H73.6016ZM80.9258 6.23438H83.7266V10.9453L87.1367 7.14844C87.3867 6.85156 87.6914 6.625 88.0508 6.46875C88.418 6.3125 88.7891 6.23438 89.1641 6.23438C89.4922 6.23438 89.7891 6.30469 90.0547 6.44531C90.3203 6.58594 90.5469 6.78125 90.7344 7.03125C90.9219 7.27344 91.0664 7.5625 91.168 7.89844C91.2695 8.22656 91.3203 8.57812 91.3203 8.95312V10.9453L94.4023 7.14844C94.6289 6.83594 94.9297 6.60547 95.3047 6.45703C95.6875 6.30859 96.0625 6.23438 96.4297 6.23438C96.7578 6.23438 97.0547 6.30469 97.3203 6.44531C97.5859 6.58594 97.8125 6.78125 98 7.03125C98.1875 7.27344 98.332 7.5625 98.4336 7.89844C98.5352 8.22656 98.5859 8.57812 98.5859 8.95312V21.9961H101.117C101.086 22.2695 101.008 22.5312 100.883 22.7812C100.766 23.0234 100.613 23.2344 100.426 23.4141C100.246 23.5938 100.039 23.7383 99.8047 23.8477C99.5703 23.9492 99.3242 24 99.0664 24H97.9648C97.6602 24 97.375 23.9219 97.1094 23.7656C96.8516 23.6094 96.625 23.3984 96.4297 23.1328C96.2422 22.8672 96.0938 22.5547 95.9844 22.1953C95.875 21.8359 95.8203 21.4531 95.8203 21.0469V8.53125L91.3203 13.9102V24H88.5547V8.53125L83.7266 13.9102V24H80.9258V6.23438ZM105.336 21.9961H109.051V8.21484H105.184V12.2578H102.77V9.21094C102.77 8.79688 102.828 8.41016 102.945 8.05078C103.062 7.68359 103.223 7.36719 103.426 7.10156C103.629 6.82813 103.863 6.61719 104.129 6.46875C104.402 6.3125 104.695 6.23438 105.008 6.23438H111.84V21.0469C111.84 21.4531 111.781 21.8359 111.664 22.1953C111.547 22.5547 111.387 22.8672 111.184 23.1328C110.98 23.3984 110.742 23.6094 110.469 23.7656C110.203 23.9219 109.918 24 109.613 24H105.336V21.9961ZM117.289 17.3906H114.676C114.699 17.1172 114.77 16.8594 114.887 16.6172C115.012 16.375 115.164 16.1641 115.344 15.9844C115.531 15.7969 115.742 15.6523 115.977 15.5508C116.211 15.4414 116.461 15.3867 116.727 15.3867H117.289V6.23438H125.234C125.547 6.23438 125.848 6.3125 126.137 6.46875C126.426 6.61719 126.68 6.82813 126.898 7.10156C127.125 7.36719 127.305 7.68359 127.438 8.05078C127.57 8.41016 127.637 8.79688 127.637 9.21094V13.582C127.637 14.1523 127.508 14.6758 127.25 15.1523C126.992 15.6289 126.617 16.0117 126.125 16.3008C126.469 16.4258 126.766 16.6016 127.016 16.8281C127.266 17.0547 127.473 17.3047 127.637 17.5781C127.801 17.8516 127.922 18.1367 128 18.4336C128.078 18.7305 128.117 19.0117 128.117 19.2773L128.105 21.9844H131.188C131.156 22.2656 131.078 22.5273 130.953 22.7695C130.836 23.0117 130.684 23.2266 130.496 23.4141C130.316 23.5938 130.109 23.7383 129.875 23.8477C129.641 23.9492 129.395 24 129.137 24H127.52C127.215 24 126.926 23.9219 126.652 23.7656C126.387 23.6094 126.152 23.3984 125.949 23.1328C125.746 22.8672 125.586 22.5547 125.469 22.1953C125.352 21.8359 125.293 21.4531 125.293 21.0469V17.3906H120.066L120.055 24H117.289V17.3906ZM124.859 15.3867V8.23828H120.066V15.3867H124.859Z" fill="white"/>
<path d="M50.4075 29C50.5342 29.1267 50.5975 29.29 50.5975 29.49C50.5975 29.6567 50.5608 29.8267 50.4875 30L48.1275 36L48.0175 36.05L46.6975 31.86L45.0675 36L44.9575 36.05L42.7375 29H43.5875L45.3775 34.92L46.6475 31.7L45.7975 29H46.6475L48.4375 34.92L50.3675 30C50.4408 29.8333 50.4775 29.66 50.4775 29.48C50.4775 29.3 50.4275 29.16 50.3275 29.06L50.4075 29ZM57.5745 29V29.1H54.4245V32.1H57.3445V32.2H54.4245V35.9H57.7945V36H53.5945V29H57.5745ZM60.8484 29.08C61.6218 29.0267 62.3051 29 62.8984 29C64.5451 29 65.3684 29.55 65.3684 30.65C65.3684 31.0633 65.2484 31.42 65.0084 31.72C64.7684 32.0133 64.3851 32.2133 63.8584 32.32C64.3651 32.38 64.7651 32.5333 65.0584 32.78C65.3518 33.0267 65.4984 33.4567 65.4984 34.07C65.4984 35.3567 64.6751 36 63.0284 36H60.8484V29.08ZM61.6784 35.9H63.0284C63.6218 35.9 64.0418 35.7467 64.2884 35.44C64.5418 35.1267 64.6684 34.65 64.6684 34.01C64.6684 33.37 64.5418 32.9433 64.2884 32.73C64.0351 32.5167 63.6584 32.4033 63.1584 32.39H61.6784V35.9ZM62.8984 29.1C62.5118 29.1 62.1051 29.1233 61.6784 29.17V32.29H63.1584C64.0984 32.25 64.5684 31.71 64.5684 30.67C64.5684 30.1633 64.4284 29.7767 64.1484 29.51C63.8684 29.2367 63.4518 29.1 62.8984 29.1ZM74.3398 29.01C74.6332 28.9967 74.9198 28.99 75.1998 28.99C75.4865 28.99 75.7865 29.02 76.0998 29.08C76.4198 29.14 76.7332 29.2533 77.0398 29.42C77.3532 29.58 77.6165 29.79 77.8298 30.05C78.0498 30.3033 78.2265 30.64 78.3598 31.06C78.4932 31.48 78.5598 31.99 78.5598 32.59C78.5598 33.19 78.4598 33.73 78.2598 34.21C78.0665 34.6833 77.7998 35.0467 77.4598 35.3C76.7998 35.7933 76.0032 36.04 75.0698 36.04C74.7432 36.04 74.3998 36.0267 74.0398 36H73.5398V29.01H74.3398ZM74.3698 35.92C74.5098 35.9333 74.6865 35.94 74.8998 35.94C75.1132 35.94 75.2732 35.9367 75.3798 35.93C75.4865 35.9233 75.6332 35.8967 75.8198 35.85C76.0065 35.7967 76.1798 35.7267 76.3398 35.64C76.4998 35.5533 76.6665 35.4267 76.8398 35.26C77.0198 35.0867 77.1732 34.8833 77.2998 34.65C77.5865 34.1033 77.7298 33.39 77.7298 32.51C77.7298 31.8833 77.6532 31.3433 77.4998 30.89C77.3465 30.43 77.1698 30.09 76.9698 29.87C76.7765 29.65 76.5398 29.4767 76.2598 29.35C75.9798 29.2167 75.7565 29.14 75.5898 29.12C75.4232 29.1 75.2298 29.09 75.0098 29.09C74.7898 29.09 74.5765 29.1 74.3698 29.12V35.92ZM85.6429 29V29.1H82.4929V32.1H85.4129V32.2H82.4929V35.9H85.8629V36H81.6629V29H85.6429ZM93.6268 29C93.7535 29.1267 93.8168 29.29 93.8168 29.49C93.8168 29.6567 93.7801 29.8267 93.7068 30L91.1468 36L91.0368 36.05L88.5168 29H89.3668L91.4568 34.92L93.5868 30C93.6601 29.8333 93.6968 29.66 93.6968 29.48C93.6968 29.3 93.6468 29.16 93.5468 29.06L93.6268 29ZM100.795 29V29.1H97.6452V32.1H100.565V32.2H97.6452V35.9H101.015V36H96.8152V29H100.795ZM107.869 36H104.069V29H104.899V35.9H107.869V36ZM110.176 32.67C110.176 31.4567 110.469 30.5367 111.056 29.91C111.649 29.2767 112.409 28.96 113.336 28.96C114.262 28.96 114.999 29.2333 115.546 29.78C116.099 30.3267 116.376 31.2 116.376 32.4C116.376 33.6 116.082 34.5067 115.496 35.12C114.909 35.7333 114.126 36.04 113.146 36.04C112.299 36.04 111.606 35.7967 111.066 35.31C110.786 35.0567 110.566 34.7067 110.406 34.26C110.252 33.8067 110.176 33.2767 110.176 32.67ZM113.306 29.06C112.632 29.06 112.079 29.36 111.646 29.96C111.219 30.56 111.006 31.44 111.006 32.6C111.006 33.76 111.209 34.6067 111.616 35.14C112.022 35.6733 112.562 35.94 113.236 35.94C113.916 35.94 114.469 35.64 114.896 35.04C115.329 34.4333 115.546 33.5567 115.546 32.41C115.546 31.2567 115.339 30.41 114.926 29.87C114.519 29.33 113.979 29.06 113.306 29.06ZM119.475 29.08C120.249 29.0267 120.929 29 121.515 29C123.169 29 123.995 29.5833 123.995 30.75C123.995 31.29 123.855 31.7633 123.575 32.17C123.429 32.39 123.202 32.5667 122.895 32.7C122.589 32.8267 122.219 32.89 121.785 32.89H120.305V36H119.475V29.08ZM121.525 29.1C121.139 29.1 120.732 29.1233 120.305 29.17V32.79H121.785C122.725 32.75 123.195 32.0767 123.195 30.77C123.195 30.2367 123.055 29.8267 122.775 29.54C122.495 29.2467 122.079 29.1 121.525 29.1ZM130.983 29V29.1H127.833V32.1H130.753V32.2H127.833V35.9H131.203V36H127.003V29H130.983ZM134.257 29.08C135.03 29.0267 135.713 29 136.307 29C137.953 29 138.777 29.55 138.777 30.65C138.777 31.1167 138.663 31.5333 138.437 31.9C138.21 32.2667 137.82 32.51 137.267 32.63L139.267 36H138.337L136.377 32.69H135.087V36H134.257V29.08ZM136.307 29.1C135.92 29.1 135.513 29.1233 135.087 29.17V32.59H136.567C137.507 32.55 137.977 31.91 137.977 30.67C137.977 30.1633 137.837 29.7767 137.557 29.51C137.277 29.2367 136.86 29.1 136.307 29.1Z" fill="white"/>
</svg> -->


<svg width="40" height="31" viewBox="0 0 97 31" fill="none" xmlns="http://www.w3.org/2000/svg">
<path d="M8.41525 13.5352H5.70822C5.73947 13.2617 5.81369 13.0039 5.93088 12.7617C6.05588 12.5195 6.20822 12.3086 6.38791 12.1289C6.57541 11.9414 6.78635 11.7969 7.02072 11.6953C7.2551 11.5859 7.50119 11.5312 7.759 11.5312H8.76682L10.3254 2.44922C10.3801 2.12891 10.4817 1.83203 10.6301 1.55859C10.7863 1.28516 10.966 1.05078 11.1692 0.855469C11.3801 0.660156 11.6106 0.507812 11.8606 0.398438C12.1106 0.289063 12.3606 0.234375 12.6106 0.234375H15.4582C15.7004 0.234375 15.9465 0.289063 16.1965 0.398438C16.4465 0.507812 16.677 0.664063 16.8879 0.867188C17.0988 1.0625 17.2785 1.29688 17.427 1.57031C17.5832 1.83594 17.6887 2.13281 17.7434 2.46094L20.4153 18H17.6145L16.8879 13.5352H11.134L10.4192 18H7.65353L8.41525 13.5352ZM16.5715 11.5312L15.0715 2.21484H12.927C12.677 3.73047 12.4309 5.26953 12.1887 6.83203C11.9465 8.38672 11.7004 9.95312 11.4504 11.5312H16.5715ZM23.9778 13.5352H21.2707C21.302 13.2617 21.3762 13.0039 21.4934 12.7617C21.6184 12.5195 21.7707 12.3086 21.9504 12.1289C22.1379 11.9414 22.3488 11.7969 22.5832 11.6953C22.8176 11.5859 23.0637 11.5312 23.3215 11.5312H24.3293L25.8879 2.44922C25.9426 2.12891 26.0442 1.83203 26.1926 1.55859C26.3488 1.28516 26.5285 1.05078 26.7317 0.855469C26.9426 0.660156 27.1731 0.507812 27.4231 0.398438C27.6731 0.289063 27.9231 0.234375 28.1731 0.234375H31.0207C31.2629 0.234375 31.509 0.289063 31.759 0.398438C32.009 0.507812 32.2395 0.664063 32.4504 0.867188C32.6613 1.0625 32.841 1.29688 32.9895 1.57031C33.1457 1.83594 33.2512 2.13281 33.3059 2.46094L35.9778 18H33.177L32.4504 13.5352H26.6965L25.9817 18H23.216L23.9778 13.5352ZM32.134 11.5312L30.634 2.21484H28.4895C28.2395 3.73047 27.9934 5.26953 27.7512 6.83203C27.509 8.38672 27.2629 9.95312 27.0129 11.5312H32.134ZM39.4582 0.234375H42.259V4.94531L45.6692 1.14844C45.9192 0.851563 46.2238 0.625 46.5832 0.46875C46.9504 0.3125 47.3215 0.234375 47.6965 0.234375C48.0246 0.234375 48.3215 0.304688 48.5871 0.445312C48.8528 0.585938 49.0793 0.78125 49.2668 1.03125C49.4543 1.27344 49.5988 1.5625 49.7004 1.89844C49.802 2.22656 49.8528 2.57812 49.8528 2.95312V4.94531L52.9348 1.14844C53.1613 0.835937 53.4621 0.605469 53.8371 0.457031C54.2199 0.308594 54.5949 0.234375 54.9621 0.234375C55.2903 0.234375 55.5871 0.304688 55.8528 0.445312C56.1184 0.585938 56.3449 0.78125 56.5324 1.03125C56.7199 1.27344 56.8645 1.5625 56.966 1.89844C57.0676 2.22656 57.1184 2.57812 57.1184 2.95312V15.9961H59.6496C59.6184 16.2695 59.5403 16.5312 59.4153 16.7812C59.2981 17.0234 59.1457 17.2344 58.9582 17.4141C58.7785 17.5938 58.5715 17.7383 58.3371 17.8477C58.1028 17.9492 57.8567 18 57.5988 18H56.4973C56.1926 18 55.9074 17.9219 55.6418 17.7656C55.384 17.6094 55.1574 17.3984 54.9621 17.1328C54.7746 16.8672 54.6262 16.5547 54.5168 16.1953C54.4074 15.8359 54.3528 15.4531 54.3528 15.0469V2.53125L49.8528 7.91016V18H47.0871V2.53125L42.259 7.91016V18H39.4582V0.234375ZM63.8684 15.9961H67.5832V2.21484H63.716V6.25781H61.302V3.21094C61.302 2.79688 61.3606 2.41016 61.4778 2.05078C61.5949 1.68359 61.7551 1.36719 61.9582 1.10156C62.1613 0.828125 62.3957 0.617188 62.6613 0.46875C62.9348 0.3125 63.2278 0.234375 63.5403 0.234375H70.3723V15.0469C70.3723 15.4531 70.3137 15.8359 70.1965 16.1953C70.0793 16.5547 69.9192 16.8672 69.716 17.1328C69.5129 17.3984 69.2746 17.6094 69.0012 17.7656C68.7356 17.9219 68.4504 18 68.1457 18H63.8684V15.9961ZM75.8215 11.3906H73.2082C73.2317 11.1172 73.302 10.8594 73.4192 10.6172C73.5442 10.375 73.6965 10.1641 73.8762 9.98438C74.0637 9.79688 74.2746 9.65234 74.509 9.55078C74.7434 9.44141 74.9934 9.38672 75.259 9.38672H75.8215V0.234375H83.7668C84.0793 0.234375 84.3801 0.3125 84.6692 0.46875C84.9582 0.617188 85.2121 0.828125 85.4309 1.10156C85.6574 1.36719 85.8371 1.68359 85.9699 2.05078C86.1028 2.41016 86.1692 2.79688 86.1692 3.21094V7.58203C86.1692 8.15234 86.0403 8.67578 85.7824 9.15234C85.5246 9.62891 85.1496 10.0117 84.6574 10.3008C85.0012 10.4258 85.2981 10.6016 85.5481 10.8281C85.7981 11.0547 86.0051 11.3047 86.1692 11.5781C86.3332 11.8516 86.4543 12.1367 86.5324 12.4336C86.6106 12.7305 86.6496 13.0117 86.6496 13.2773L86.6379 15.9844H89.7199C89.6887 16.2656 89.6106 16.5273 89.4856 16.7695C89.3684 17.0117 89.216 17.2266 89.0285 17.4141C88.8488 17.5938 88.6418 17.7383 88.4074 17.8477C88.1731 17.9492 87.927 18 87.6692 18H86.052C85.7473 18 85.4582 17.9219 85.1848 17.7656C84.9192 17.6094 84.6848 17.3984 84.4817 17.1328C84.2785 16.8672 84.1184 16.5547 84.0012 16.1953C83.884 15.8359 83.8254 15.4531 83.8254 15.0469V11.3906H78.5988L78.5871 18H75.8215V11.3906ZM83.3918 9.38672V2.23828H78.5988V9.38672H83.3918Z" fill="white"/>
<path d="M7.97 23C8.09667 23.1267 8.16 23.29 8.16 23.49C8.16 23.6567 8.12333 23.8267 8.05 24L5.69 30L5.58 30.05L4.26 25.86L2.63 30L2.52 30.05L0.3 23H1.15L2.94 28.92L4.21 25.7L3.36 23H4.21L6 28.92L7.93 24C8.00333 23.8333 8.04 23.66 8.04 23.48C8.04 23.3 7.99 23.16 7.89 23.06L7.97 23ZM15.137 23V23.1H11.987V26.1H14.907V26.2H11.987V29.9H15.357V30H11.157V23H15.137ZM18.4109 23.08C19.1843 23.0267 19.8676 23 20.4609 23C22.1076 23 22.9309 23.55 22.9309 24.65C22.9309 25.0633 22.8109 25.42 22.5709 25.72C22.3309 26.0133 21.9476 26.2133 21.4209 26.32C21.9276 26.38 22.3276 26.5333 22.6209 26.78C22.9143 27.0267 23.0609 27.4567 23.0609 28.07C23.0609 29.3567 22.2376 30 20.5909 30H18.4109V23.08ZM19.2409 29.9H20.5909C21.1843 29.9 21.6043 29.7467 21.8509 29.44C22.1043 29.1267 22.2309 28.65 22.2309 28.01C22.2309 27.37 22.1043 26.9433 21.8509 26.73C21.5976 26.5167 21.2209 26.4033 20.7209 26.39H19.2409V29.9ZM20.4609 23.1C20.0743 23.1 19.6676 23.1233 19.2409 23.17V26.29H20.7209C21.6609 26.25 22.1309 25.71 22.1309 24.67C22.1309 24.1633 21.9909 23.7767 21.7109 23.51C21.4309 23.2367 21.0143 23.1 20.4609 23.1ZM31.9023 23.01C32.1957 22.9967 32.4823 22.99 32.7623 22.99C33.049 22.99 33.349 23.02 33.6623 23.08C33.9823 23.14 34.2957 23.2533 34.6023 23.42C34.9157 23.58 35.179 23.79 35.3923 24.05C35.6123 24.3033 35.789 24.64 35.9223 25.06C36.0557 25.48 36.1223 25.99 36.1223 26.59C36.1223 27.19 36.0223 27.73 35.8223 28.21C35.629 28.6833 35.3623 29.0467 35.0223 29.3C34.3623 29.7933 33.5657 30.04 32.6323 30.04C32.3057 30.04 31.9623 30.0267 31.6023 30H31.1023V23.01H31.9023ZM31.9323 29.92C32.0723 29.9333 32.249 29.94 32.4623 29.94C32.6757 29.94 32.8357 29.9367 32.9423 29.93C33.049 29.9233 33.1957 29.8967 33.3823 29.85C33.569 29.7967 33.7423 29.7267 33.9023 29.64C34.0623 29.5533 34.229 29.4267 34.4023 29.26C34.5823 29.0867 34.7357 28.8833 34.8623 28.65C35.149 28.1033 35.2923 27.39 35.2923 26.51C35.2923 25.8833 35.2157 25.3433 35.0623 24.89C34.909 24.43 34.7323 24.09 34.5323 23.87C34.339 23.65 34.1023 23.4767 33.8223 23.35C33.5423 23.2167 33.319 23.14 33.1523 23.12C32.9857 23.1 32.7923 23.09 32.5723 23.09C32.3523 23.09 32.139 23.1 31.9323 23.12V29.92ZM43.2054 23V23.1H40.0554V26.1H42.9754V26.2H40.0554V29.9H43.4254V30H39.2254V23H43.2054ZM51.1893 23C51.316 23.1267 51.3793 23.29 51.3793 23.49C51.3793 23.6567 51.3426 23.8267 51.2693 24L48.7093 30L48.5993 30.05L46.0793 23H46.9293L49.0193 28.92L51.1493 24C51.2226 23.8333 51.2593 23.66 51.2593 23.48C51.2593 23.3 51.2093 23.16 51.1093 23.06L51.1893 23ZM58.3577 23V23.1H55.2077V26.1H58.1277V26.2H55.2077V29.9H58.5777V30H54.3777V23H58.3577ZM65.4316 30H61.6316V23H62.4616V29.9H65.4316V30ZM67.7383 26.67C67.7383 25.4567 68.0316 24.5367 68.6183 23.91C69.2116 23.2767 69.9716 22.96 70.8983 22.96C71.8249 22.96 72.5616 23.2333 73.1083 23.78C73.6616 24.3267 73.9383 25.2 73.9383 26.4C73.9383 27.6 73.6449 28.5067 73.0583 29.12C72.4716 29.7333 71.6883 30.04 70.7083 30.04C69.8616 30.04 69.1683 29.7967 68.6283 29.31C68.3483 29.0567 68.1283 28.7067 67.9683 28.26C67.8149 27.8067 67.7383 27.2767 67.7383 26.67ZM70.8683 23.06C70.1949 23.06 69.6416 23.36 69.2083 23.96C68.7816 24.56 68.5683 25.44 68.5683 26.6C68.5683 27.76 68.7716 28.6067 69.1783 29.14C69.5849 29.6733 70.1249 29.94 70.7983 29.94C71.4783 29.94 72.0316 29.64 72.4583 29.04C72.8916 28.4333 73.1083 27.5567 73.1083 26.41C73.1083 25.2567 72.9016 24.41 72.4883 23.87C72.0816 23.33 71.5416 23.06 70.8683 23.06ZM77.0379 23.08C77.8112 23.0267 78.4912 23 79.0779 23C80.7312 23 81.5579 23.5833 81.5579 24.75C81.5579 25.29 81.4179 25.7633 81.1379 26.17C80.9912 26.39 80.7646 26.5667 80.4579 26.7C80.1512 26.8267 79.7812 26.89 79.3479 26.89H77.8679V30H77.0379V23.08ZM79.0879 23.1C78.7012 23.1 78.2946 23.1233 77.8679 23.17V26.79H79.3479C80.2879 26.75 80.7579 26.0767 80.7579 24.77C80.7579 24.2367 80.6179 23.8267 80.3379 23.54C80.0579 23.2467 79.6412 23.1 79.0879 23.1ZM88.5452 23V23.1H85.3952V26.1H88.3152V26.2H85.3952V29.9H88.7652V30H84.5652V23H88.5452ZM91.8191 23.08C92.5925 23.0267 93.2758 23 93.8691 23C95.5158 23 96.3391 23.55 96.3391 24.65C96.3391 25.1167 96.2258 25.5333 95.9991 25.9C95.7725 26.2667 95.3825 26.51 94.8291 26.63L96.8291 30H95.8991L93.9391 26.69H92.6491V30H91.8191V23.08ZM93.8691 23.1C93.4825 23.1 93.0758 23.1233 92.6491 23.17V26.59H94.1291C95.0691 26.55 95.5391 25.91 95.5391 24.67C95.5391 24.1633 95.3991 23.7767 95.1191 23.51C94.8391 23.2367 94.4225 23.1 93.8691 23.1Z" fill="white"/>
</svg>
